<svg xmlns="http://www.w3.org/2000/svg" width="16" height="16" viewBox="0 0 16 16"><path d="M8 1.442c2.136 0 2.389.008 3.233.047 2.168.1 3.181 1.127 3.279 3.279.039.843.046 1.1.046 3.233s-.008 2.389-.046 3.233c-.1 2.15-1.109 3.181-3.279 3.279-.844.039-1.1.047-3.233.047s-2.389-.008-3.233-.047c-2.173-.1-3.181-1.133-3.279-3.28-.039-.843-.047-1.1-.047-3.233s.009-2.389.047-3.233c.1-2.151 1.109-3.181 3.279-3.279.844-.038 1.1-.046 3.233-.046zM8 0C5.827 0 5.555.009 4.7.048 1.8.181.182 1.793.049 4.7.009 5.555 0 5.827 0 8s.009 2.445.048 3.3c.133 2.9 1.745 4.519 4.652 4.652.855.039 1.127.048 3.3.048s2.445-.009 3.3-.048c2.9-.133 4.521-1.745 4.653-4.653.039-.853.049-1.126.049-3.3s-.009-2.445-.048-3.3C15.821 1.8 14.207.182 11.3.049 10.445.009 10.173 0 8 0zm0 3.892A4.108 4.108 0 1012.108 8 4.108 4.108 0 008 3.892zm0 6.775A2.667 2.667 0 1110.667 8 2.666 2.666 0 018 10.667zm4.271-7.9a.96.96 0 10.959.96.96.96 0 00-.959-.957z" fill="#333"/></svg>