<svg xmlns="http://www.w3.org/2000/svg" width="20" height="26.006" viewBox="0 0 20 26.006"><path d="M3.333 25.714L0 23.414V8.027L3.333 9.5zm2.222-16.1v16.392L20 23.889V7.585zm6.626-8.533a4.657 4.657 0 00-4.4 4.623V7.53a.556.556 0 001.111 0V5.708a3.565 3.565 0 013.292-3.541 2.152 2.152 0 011.538.611 2.569 2.569 0 01.726 1.871v1.894a.552.552 0 00.639.535.544.544 0 00.47-.533v-1.9a3.388 3.388 0 00-3.374-3.566zm-7.1 6.5a.548.548 0 00.474-.536v-2.42a3.564 3.564 0 013.292-3.541l.18.016a5.566 5.566 0 011.32-.74 3.339 3.339 0 00-1.5-.36 4.658 4.658 0 00-4.4 4.623v2.421a.551.551 0 00.636.535z" fill="#333"/></svg>