<svg xmlns="http://www.w3.org/2000/svg" width="222.992" height="23.672" viewBox="0 0 222.992 23.672"><path d="M5.918 2.728c3.036 0 4.334 1.364 4.334 3.85 0 2.354-1.34 4.03-4.752 4.03H4v-1.3c0-2.222 0-4.422.044-6.578zm-.484 8.668c4.576 0 6.512-2.112 6.512-4.818 0-2.816-1.914-4.642-5.72-4.642H0v.682l2.354.22c.022 2.134.022 4.29.022 6.468v1.232c0 2.156 0 4.334-.022 6.446L0 17.208v.7h6.49v-.7l-2.442-.224c-.044-1.914-.044-3.762-.044-5.588zm20.152 3.982c-1.408 1.254-2.156 1.694-3.19 1.694a1.865 1.865 0 01-2.112-1.98c0-.968.55-1.892 2.6-2.706a25.422 25.422 0 012.706-.792zm3.432 1.386a1.361 1.361 0 01-.968.506c-.66 0-1.012-.44-1.012-1.826v-5.236c0-2.772-1.188-3.85-3.608-3.85-2.266 0-3.894 1.034-4.356 2.838a.784.784 0 00.858.748c.506 0 .814-.286.968-.88l.462-1.584a4.709 4.709 0 011.738-.352c1.716 0 2.486.616 2.486 3.08v.726a30.567 30.567 0 00-3.036.814c-2.86.99-3.784 2.068-3.784 3.586a2.794 2.794 0 003.058 2.882c1.518 0 2.42-.66 3.806-2.09.154 1.276.814 2.046 1.936 2.046a2.083 2.083 0 001.8-1.012zm11.194-3.278c-1.606 0-2.662-1.32-2.662-3.212 0-1.87 1.078-3.212 2.728-3.212s2.706 1.276 2.706 3.168c.004 1.914-1.096 3.256-2.772 3.256zm2.094 4.686c1.8 0 2.442.858 2.442 1.958 0 1.5-1.452 2.706-4.268 2.706-2.134 0-3.476-.814-3.476-2.464a2.8 2.8 0 011.232-2.288 7.312 7.312 0 001.254.088zm3.85-11.506l-.352-.242-2.728.814a4.4 4.4 0 00-2.816-.88 3.8 3.8 0 00-4.136 3.916 3.633 3.633 0 001.8 3.344c-1.122 1.012-1.584 1.76-1.584 2.6a1.748 1.748 0 001.456 1.712c-1.5.748-2.222 1.584-2.222 2.706 0 1.76 1.628 3.036 4.884 3.036 3.762 0 5.61-1.98 5.61-3.96 0-1.848-1.166-2.9-3.5-2.9h-3.256c-1.32 0-1.76-.44-1.76-1.166a2.731 2.731 0 01.88-1.782 4.742 4.742 0 001.826.33 3.813 3.813 0 004.136-3.916 3.892 3.892 0 00-.748-2.442l2.508.022zm8.316 4.73c.22-2.728 1.848-4.268 3.63-4.268a3.009 3.009 0 012.992 3.124c0 .726-.22 1.166-1.034 1.166zm7.92.748a4.336 4.336 0 00.154-1.32 4.2 4.2 0 00-4.356-4.466c-2.838 0-5.3 2.332-5.3 5.962 0 3.85 2.31 5.9 5.3 5.9a4.863 4.863 0 004.312-2.42l-.418-.308a4.338 4.338 0 01-3.5 1.628c-2.31 0-4.092-1.562-4.136-4.972zm28.93 4.884c-.022-1.21-.044-2.926-.044-4.114v-2.332c0-3.036-1.034-4.224-2.97-4.224a6.354 6.354 0 00-4.466 2.332l-.154-2.068-.286-.22-3.058.968v.638l2.024.132c.044 1.056.066 2.134.066 3.586v1.188c0 1.144-.022 2.9-.044 4.114l-1.936.242v.638h5.236v-.638l-1.76-.242a264.95 264.95 0 01-.044-4.114V9.482a5.481 5.481 0 013.806-1.914c1.408 0 2.134.77 2.134 3.058v2.288c0 1.188-.022 2.9-.044 4.114l-1.914.242v.638h5.214v-.638zm14.08 1.188c2.662 0 5.346-1.892 5.346-5.9 0-3.982-2.684-5.962-5.346-5.962s-5.324 1.98-5.324 5.962c0 4.008 2.64 5.9 5.324 5.9zm0-.792c-2.31 0-3.7-1.8-3.7-5.1 0-3.278 1.386-5.192 3.7-5.192 2.288 0 3.718 1.914 3.718 5.192 0 3.296-1.43 5.1-3.718 5.1zm18.546-.7a2.885 2.885 0 01-1.694.594c-.946 0-1.474-.572-1.474-1.958V7.568h3.322v-.9h-3.3l.11-3.366h-1.078l-.462 3.322-2.288.2v.748h2.244V13.6c0 .814-.022 1.3-.022 1.8-.044 1.892.814 2.816 2.53 2.816a3.227 3.227 0 002.486-.99zm17.27-9.9v.748h2.156v5.346c0 1.386-.022 2.75-.066 4.114l-2.068.242v.634h5.918v-.638l-2.288-.242c-.022-1.386-.044-2.728-.044-4.114V7.568h3.5v-.9h-3.52c-.022-2.64.352-3.982.968-4.884a2.753 2.753 0 011.21-1.012l.55.44a2.5 2.5 0 001.606.726.945.945 0 001.056-.836c-.176-.726-1.034-1.1-2.068-1.1a4.079 4.079 0 00-3.08 1.386c-1.1 1.122-1.518 2.684-1.672 5.214zm18.744 11.392c2.662 0 5.346-1.892 5.346-5.9 0-3.982-2.684-5.962-5.346-5.962s-5.324 1.98-5.324 5.962c0 4.008 2.64 5.9 5.324 5.9zm0-.792c-2.31 0-3.7-1.8-3.7-5.1 0-3.278 1.386-5.192 3.7-5.192 2.288 0 3.718 1.914 3.718 5.192 0 3.296-1.43 5.1-3.718 5.1zm22.77-.4v-6.926l.088-3.3-.242-.264-3.08.264v.638l1.826.264-.044 7.37a5.07 5.07 0 01-3.7 1.914c-1.474 0-2.244-.836-2.244-3.256v-3.63l.11-3.3-.22-.264-3.124.264v.638l1.848.264-.066 6.16c-.022 3.234 1.1 4.356 3.124 4.356a5.578 5.578 0 004.29-2.354l.132 2.222 3.04-.176v-.638zm19.6 0c-.022-1.21-.044-2.926-.044-4.114v-2.328c0-3.036-1.034-4.224-2.97-4.224a6.354 6.354 0 00-4.466 2.332l-.154-2.068-.286-.22-3.058.968v.638l2.024.132c.044 1.056.066 2.134.066 3.586v1.188c0 1.144-.022 2.9-.044 4.114l-1.936.242v.638h5.236v-.638l-1.758-.242a264.95 264.95 0 01-.044-4.114V9.482a5.481 5.481 0 013.806-1.914c1.408 0 2.134.77 2.134 3.058v2.288c0 1.188-.022 2.9-.044 4.114l-1.914.242v.638h5.214v-.638zm17.05-1.43a3.8 3.8 0 01-3.1 1.628c-2.09 0-3.63-1.562-3.63-4.862 0-3.52 1.694-5.016 3.718-5.016a4.276 4.276 0 013.014 1.474zm1.452 1.474V3.758L220.9.414l-.33-.176-3.234.748v.66l2.068.11v6.252a4.176 4.176 0 00-3.256-1.65c-2.926 0-5.06 2.354-5.06 6.05 0 3.41 1.958 5.808 4.8 5.808a4.26 4.26 0 003.52-1.8l.064 1.692 3.52-.2v-.638z" fill="#777"/></svg>